<?xml version="1.0" ?><svg viewBox="0 0 32 32" xmlns="http://www.w3.org/2000/svg"><title/><g data-name="Layer 2" id="Layer_2"><path d="M19.43,10H16.86a.5.5,0,0,0,0,1h2.57a.5.5,0,0,0,0-1Z"/><path d="M19.43,12.75H17.71a.5.5,0,0,0,0,1h1.72a.5.5,0,0,0,0-1Z"/><path d="M6.57,8.25H10a.5.5,0,0,0,0-1H6.57a.5.5,0,0,0,0,1Z"/><path d="M6.57,11h7.72a.5.5,0,0,0,0-1H6.57a.5.5,0,0,0,0,1Z"/><path d="M16,12.75H6.57a.5.5,0,0,0,0,1H16a.5.5,0,0,0,.5-.5A.5.5,0,0,0,16,12.75Z"/><path d="M19.43,7.25H11.71a.5.5,0,0,0,0,1h7.72a.5.5,0,0,0,0-1Z"/><path d="M28,8.17H22.5V5a.5.5,0,0,0-.5-.5H4a.51.51,0,0,0-.5.5V16a.5.5,0,0,0,.5.5H6.78L5.23,22.38a.5.5,0,0,0,.24.57.53.53,0,0,0,.24.06.52.52,0,0,0,.37-.16l5.13-5.57v3.3a.5.5,0,0,0,.5.5h7.48l5,6.23a.51.51,0,0,0,.39.19.59.59,0,0,0,.23-.05.49.49,0,0,0,.25-.58l-1.54-5.79H28a.5.5,0,0,0,.5-.5V8.67A.5.5,0,0,0,28,8.17ZM11.52,15.54l0,0a.71.71,0,0,0-.14.1h0l-4.64,5,1.2-4.56a.49.49,0,0,0-.48-.63H4.5V5.5h17v10H11.71A.58.58,0,0,0,11.52,15.54Zm16,4.54H22.86a.52.52,0,0,0-.4.2.51.51,0,0,0-.09.43l1.1,4.12-3.65-4.56a.51.51,0,0,0-.39-.19H12.21V16.5H22a.5.5,0,0,0,.5-.5V9.17h5Z"/></g></svg>