<svg width="42" height="29" viewBox="0 0 42 29" fill="none" xmlns="http://www.w3.org/2000/svg">
<path d="M41.1337 4.47295C40.6408 2.72296 39.2761 1.35048 37.5183 0.865305C34.2817 4.13672e-05 21.2703 4.15764e-05 21.2703 4.15764e-05C21.2703 4.15764e-05 8.28352 -0.0207146 5.01316 0.865305C3.26447 1.35177 1.89328 2.72296 1.40551 4.47295C0.791917 7.79001 0.487063 11.1473 0.501333 14.5201C0.494847 17.8709 0.798403 21.223 1.40551 24.5193C1.89328 26.2693 3.26447 27.6418 5.01316 28.1347C8.24979 29 21.2703 29 21.2703 29C21.2703 29 34.2492 29 37.5183 28.1347C39.2761 27.6418 40.6408 26.2706 41.1337 24.5193C41.7291 21.223 42.0197 17.8709 41.999 14.5201C42.0197 11.1473 41.7356 7.79001 41.1337 4.47295ZM17.1139 20.73V8.28296L27.9446 14.5201L17.1139 20.73Z" fill="#FCFBF3"/>
</svg>
